<?xml version="1.0" standalone="no"?>
<!DOCTYPE svg PUBLIC "-//W3C//DTD SVG 20010904//EN"
 "http://www.w3.org/TR/2001/REC-SVG-20010904/DTD/svg10.dtd">
<svg version="1.0" xmlns="http://www.w3.org/2000/svg"
 width="408.000000pt" height="612.000000pt" viewBox="0 0 408.000000 612.000000"
 preserveAspectRatio="xMidYMid meet">

<g transform="translate(0.000000,612.000000) scale(0.100000,-0.100000)"
fill="#000000" stroke="none">
<path d="M205 4516 c-66 -29 -95 -97 -95 -220 0 -177 100 -453 282 -783 44
-79 53 -91 66 -80 28 22 72 90 72 109 0 15 -91 269 -169 471 -15 40 -7 33 29
-22 89 -140 227 -204 328 -152 154 80 203 334 87 457 -27 28 -40 34 -75 34
-49 0 -94 -23 -110 -58 -46 -103 7 -210 94 -188 49 12 55 66 20 184 -5 17 -2
22 13 22 78 0 125 -169 71 -250 -72 -105 -193 -105 -292 -1 -84 90 -98 179
-41 262 l29 40 -19 36 c-28 51 -108 119 -162 137 -56 19 -88 20 -128 2z"/>
<path d="M2005 4396 c-106 -47 -113 -204 -25 -515 90 -317 247 -635 421 -847
59 -72 145 -151 154 -142 3 3 -51 115 -118 249 -130 256 -209 434 -259 583
-31 92 -60 226 -49 226 3 0 17 -19 30 -42 35 -62 110 -138 156 -159 130 -60
284 34 310 188 14 86 -36 216 -92 242 -35 16 -85 13 -109 -7 -68 -55 -61 -181
12 -214 64 -29 101 93 59 195 -9 22 8 22 40 1 60 -39 72 -172 21 -239 -79
-103 -199 -84 -289 46 -61 88 -63 161 -7 216 25 24 30 36 25 56 -9 33 -63 109
-95 135 -53 41 -130 52 -185 28z"/>
<path d="M1020 4258 c-148 -76 -128 -339 55 -724 79 -166 115 -219 153 -227
27 -5 158 16 170 28 3 2 -14 33 -37 67 -23 35 -69 117 -101 183 -188 383 -185
602 8 530 152 -57 380 -281 495 -488 73 -130 104 -310 63 -356 -11 -12 -27
-21 -36 -21 -14 0 -18 14 -23 88 -12 190 -134 400 -300 515 -152 106 -204 89
-200 -66 5 -167 103 -369 261 -538 l84 -89 -29 -11 c-15 -6 -62 -12 -104 -12
-67 -1 -85 3 -150 35 -43 21 -110 67 -160 109 -48 41 -114 97 -148 126 -81 69
-134 99 -210 119 -169 43 -284 -62 -327 -296 -35 -194 -5 -449 78 -664 121
-313 411 -611 708 -726 l55 -21 -46 48 c-76 79 -253 295 -359 438 -235 315
-341 522 -371 725 -10 71 -5 200 7 187 3 -3 12 -32 19 -65 55 -236 307 -532
442 -520 47 4 70 35 84 116 19 107 -18 283 -83 391 -52 88 -92 143 -139 195
-29 32 -45 56 -37 56 20 0 160 -85 238 -145 36 -27 112 -95 170 -151 129 -124
154 -138 240 -138 70 0 131 24 182 72 25 23 29 24 59 12 50 -21 123 -18 156 6
48 35 67 87 71 200 9 232 -65 489 -193 669 -23 33 -79 95 -123 137 -145 138
-313 216 -487 225 -80 4 -95 2 -135 -19z m438 -557 c58 -30 135 -104 165 -159
32 -58 69 -208 65 -259 l-3 -36 -52 47 c-88 80 -204 257 -235 357 -8 30 -8 42
2 54 16 19 13 19 58 -4z m-674 -518 c134 -141 226 -273 226 -324 0 -93 -117
-12 -227 158 -53 81 -103 187 -103 218 0 33 42 12 104 -52z"/>
<path d="M2802 4064 c-34 -23 -62 -87 -62 -140 0 -39 5 -51 34 -80 19 -19 41
-34 50 -34 15 0 24 -20 9 -20 -5 0 -18 -8 -31 -18 -22 -17 -17 -17 135 -16
149 2 158 3 175 24 25 31 23 40 -11 40 -44 0 -168 28 -201 45 -39 20 -45 33
-24 56 22 24 61 24 99 -1 42 -28 53 -25 64 16 14 50 0 79 -56 114 -38 24 -58
30 -103 30 -34 0 -64 -6 -78 -16z"/>
<path d="M3246 4048 c-20 -20 -39 -53 -46 -79 -56 -205 129 -802 369 -1193 93
-152 276 -364 297 -343 2 2 -51 116 -118 253 -68 137 -147 305 -177 374 -71
166 -149 404 -157 477 l-5 58 31 -52 c46 -76 114 -148 163 -172 108 -53 239
-4 303 111 25 46 29 64 29 133 0 68 -4 89 -29 138 -57 116 -167 133 -216 32
-46 -95 0 -210 77 -190 47 11 69 118 39 190 -14 33 -14 35 5 35 66 0 111 -138
73 -228 -35 -86 -113 -132 -188 -111 -89 25 -186 158 -186 257 0 46 4 57 36
92 34 37 35 41 24 74 -17 52 -65 118 -106 146 -29 19 -53 26 -111 28 -72 4
-73 4 -107 -30z"/>
<path d="M2690 3619 c-14 -6 -40 -24 -58 -42 -104 -99 -106 -256 -7 -464 40
-85 136 -239 193 -312 l19 -24 69 38 c38 21 84 47 102 57 l32 20 -25 41 c-44
71 -127 239 -146 296 -25 71 -24 98 2 112 19 10 28 5 78 -48 31 -33 93 -121
139 -199 103 -172 239 -439 220 -432 -99 38 -322 43 -441 10 -89 -25 -196 -77
-246 -119 l-34 -29 31 -84 c71 -195 101 -347 71 -365 -19 -12 -56 4 -93 42
-49 49 -117 191 -156 322 -16 58 -31 105 -33 107 -1 1 -39 5 -84 8 l-82 7 -6
-28 c-36 -182 -136 -346 -264 -435 l-23 -17 65 -153 c35 -84 70 -153 76 -153
20 0 111 97 147 157 47 77 90 197 110 309 l17 93 19 -70 c52 -187 181 -354
277 -354 11 0 36 14 55 30 37 33 69 112 82 202 l6 47 63 -77 c34 -42 96 -109
137 -148 105 -100 183 -133 240 -103 31 17 58 90 65 176 14 188 -80 360 -263
483 l-76 50 59 0 c150 0 283 -77 359 -207 30 -50 21 -49 147 -12 37 11 67 24
67 29 0 16 -160 359 -243 520 -280 546 -501 785 -667 719z m337 -1235 c49 -37
91 -105 110 -178 19 -72 12 -93 -27 -81 -43 14 -160 203 -177 287 l-6 30 34
-17 c19 -10 49 -28 66 -41z"/>
<path d="M1980 2971 c-128 -18 -307 -85 -418 -155 l-43 -27 41 -46 c97 -110
155 -305 119 -400 -47 -124 -228 -146 -517 -60 l-82 24 23 -31 c44 -58 179
-166 251 -201 171 -85 297 -67 428 61 60 58 81 106 86 200 5 97 -12 164 -70
277 -22 43 -38 80 -35 84 11 10 90 22 205 29 61 4 112 7 112 8 0 1 18 53 39
116 22 63 39 116 38 117 -8 7 -133 10 -177 4z"/>
<path d="M1099 2599 c-19 -10 -45 -19 -59 -19 -67 -2 164 -149 260 -165 72
-12 68 8 -13 69 -41 31 -92 73 -114 94 l-40 39 -34 -18z"/>
</g>
</svg>
